<?xml version="1.0" standalone="no"?><!DOCTYPE svg PUBLIC "-//W3C//DTD SVG 1.1//EN" "http://www.w3.org/Graphics/SVG/1.1/DTD/svg11.dtd"><svg t="1604924790646" class="icon" viewBox="0 0 1024 1024" version="1.1" xmlns="http://www.w3.org/2000/svg" p-id="1095" xmlns:xlink="http://www.w3.org/1999/xlink" width="200" height="200"><defs><style type="text/css"></style></defs><path d="M935.16856 105.593452c-14.666761-14.666761-41.724406-32.187399-87.241939-32.187398-43.458407 0-97.212446 16.256262-156.493615 45.625908-49.780286-20.446765-104.220701-31.790023-161.370493-31.790023C295.177591 87.241939 104.762577 277.693078 104.762577 512.578c0 57.222042 11.379383 111.770832 31.862273 161.587244-50.719537 102.450575-63.688422 192.365766-13.005009 243.013053 14.666761 14.666761 41.724406 32.187399 87.241938 32.187398h0.036125c42.988781 0 96.02032-15.750512 154.615114-44.542157 50.647287 21.277641 106.243703 33.054399 164.621745 33.054399 234.884922 0 425.336062-190.415014 425.336062-425.336062 0-58.233543-11.740634-113.721583-32.909899-164.260495 50.538912-102.26995 63.254921-192.040641 12.607634-242.687928z m-28.249771 28.285896c30.670147 30.670147 25.721019 91.757567-7.26113 168.342623a427.478276 427.478276 0 0 0-161.803994-160.720242c76.910181-33.235024 138.322726-38.364778 169.065124-7.622381zM530.062513 127.882594c153.459112 0 285.929584 89.879066 347.667255 219.893036-46.601284 87.964439-123.872716 190.52339-222.674663 289.325337-99.090948 99.090948-201.938898 176.506879-290.083963 223.035913-129.86947-61.773795-219.640161-194.172017-219.640161-347.55888 0.036125-212.451281 172.280251-384.695407 384.731532-384.695406zM151.869611 888.928526c-30.634022-30.634022-25.612644-91.721442 7.297256-168.270373a427.261525 427.261525 0 0 0 160.286742 161.370493c-76.259931 32.657024-137.022225 37.461652-167.583998 6.89988z m762.924434-376.350526c0 212.487406-172.244126 384.695407-384.695407 384.695407-40.74903 0-79.980809-6.39413-116.828335-18.134763 85.507938-49.635786 179.577507-123.294715 270.106823-213.824032 85.255062-85.255062 161.406618-180.372257 213.390531-269.456572a387.079659 387.079659 0 0 1 18.026388 116.71996z" fill="#333333" p-id="1096"></path><path d="M567.777041 259.95569c-32.837649 0-59.425669 26.624145-59.425669 59.425669s26.624145 59.425669 59.425669 59.425668c32.837649 0 59.425669-26.624145 59.425668-59.425668s-26.624145-59.425669-59.425668-59.425669z" fill="#333333" p-id="1097"></path><path d="M370.064771 606.358569m-33.740775 0a33.740775 33.740775 0 1 0 67.48155 0 33.740775 33.740775 0 1 0-67.48155 0Z" fill="#333333" p-id="1098"></path><path d="M779.541946 648.082975c-17.809638-5.491004-36.666902 4.515628-42.157906 22.325266-5.491004 17.809638 4.515628 36.666902 22.325266 42.157906 17.809638 5.491004 36.666902-4.515628 42.157906-22.325266 5.454879-17.773513-4.551753-36.666902-22.325266-42.157906zM370.281521 487.362732c0-18.748889-15.208636-33.957525-33.957525-33.957525s-33.957525 15.208636-33.957525 33.957525 15.208636 33.957525 33.957525 33.957525 33.957525-15.208636 33.957525-33.957525z" fill="#333333" p-id="1099"></path></svg>